<svg width="64" height="64" viewBox="0 0 64 64" fill="none" xmlns="http://www.w3.org/2000/svg">
<path d="M11.0156 38.8203V33.9453H19.5234C21.7109 33.9453 23.3984 33.3906 24.5859 32.2812C25.7891 31.1562 26.3906 29.5781 26.3906 27.5469V27.5C26.3906 25.4531 25.7891 23.875 24.5859 22.7656C23.3984 21.6562 21.7109 21.1016 19.5234 21.1016H11.0156V16.1797H21.0234C23.3047 16.1797 25.3047 16.6484 27.0234 17.5859C28.7578 18.5234 30.1094 19.8438 31.0781 21.5469C32.0469 23.2344 32.5312 25.2109 32.5312 27.4766V27.5234C32.5312 29.7734 32.0469 31.75 31.0781 33.4531C30.1094 35.1406 28.7578 36.4609 27.0234 37.4141C25.3047 38.3516 23.3047 38.8203 21.0234 38.8203H11.0156ZM7.99219 50V16.1797H14.0391V50H7.99219Z" fill="#F782D2"/>
<path d="M45.5 50.4395C43.0273 50.4395 40.8887 49.9062 39.084 48.8398C37.291 47.7734 35.9023 46.2617 34.918 44.3047C33.9453 42.3359 33.459 40.0098 33.459 37.3262V37.291C33.459 34.6074 33.9512 32.2871 34.9355 30.3301C35.9199 28.373 37.3086 26.8613 39.1016 25.7949C40.9062 24.7285 43.0391 24.1953 45.5 24.1953C47.9609 24.1953 50.0879 24.7285 51.8809 25.7949C53.6855 26.8613 55.0742 28.373 56.0469 30.3301C57.0312 32.2871 57.5234 34.6074 57.5234 37.291V37.3262C57.5234 40.0098 57.0312 42.3359 56.0469 44.3047C55.0742 46.2617 53.6914 47.7734 51.8984 48.8398C50.1055 49.9062 47.9727 50.4395 45.5 50.4395ZM45.5 46.5195C47.0352 46.5195 48.3535 46.1445 49.4551 45.3945C50.5684 44.6328 51.4238 43.5664 52.0215 42.1953C52.6191 40.8125 52.918 39.1895 52.918 37.3262V37.291C52.918 35.416 52.6133 33.793 52.0039 32.4219C51.4062 31.0391 50.5508 29.9785 49.4375 29.2402C48.3242 28.4902 47.0117 28.1152 45.5 28.1152C44 28.1152 42.6875 28.4902 41.5625 29.2402C40.4492 29.9785 39.5879 31.0332 38.9785 32.4043C38.3809 33.7754 38.082 35.4043 38.082 37.291V37.3262C38.082 39.2012 38.3809 40.8301 38.9785 42.2129C39.5879 43.584 40.4492 44.6445 41.5625 45.3945C42.6758 46.1445 43.9883 46.5195 45.5 46.5195Z" fill="#F782D2"/>
</svg>
