<svg width="16" height="16" viewBox="0 0 16 16" fill="none" xmlns="http://www.w3.org/2000/svg">
<path d="M1.51172 9.88965V8.27637H4.04102C4.63346 8.27637 5.09375 8.12598 5.42188 7.8252C5.75456 7.51986 5.9209 7.08691 5.9209 6.52637V6.5127C5.9209 5.95215 5.75456 5.52148 5.42188 5.2207C5.09375 4.91992 4.63346 4.76953 4.04102 4.76953H1.51172V3.13574H4.54688C5.23958 3.13574 5.8457 3.27702 6.36523 3.55957C6.88477 3.83757 7.28809 4.22949 7.5752 4.73535C7.86686 5.24121 8.0127 5.83138 8.0127 6.50586V6.51953C8.0127 7.19857 7.86686 7.79102 7.5752 8.29688C7.28809 8.80273 6.88477 9.19466 6.36523 9.47266C5.8457 9.75065 5.23958 9.88965 4.54688 9.88965H1.51172ZM0.479492 13V3.13574H2.54395V13H0.479492Z" fill="#F782D2"/>
<path d="M11.5 13.1987C10.7337 13.1987 10.0713 13.034 9.5127 12.7046C8.9541 12.3716 8.52262 11.9007 8.21826 11.292C7.91748 10.6833 7.76709 9.96175 7.76709 9.12744V9.1167C7.76709 8.27881 7.91927 7.55729 8.22363 6.95215C8.53158 6.34342 8.96484 5.87435 9.52344 5.54492C10.082 5.21549 10.7409 5.05078 11.5 5.05078C12.2627 5.05078 12.9215 5.21549 13.4766 5.54492C14.0352 5.87435 14.4666 6.34342 14.771 6.95215C15.0754 7.56087 15.2275 8.28239 15.2275 9.1167V9.12744C15.2275 9.96175 15.0754 10.6833 14.771 11.292C14.4702 11.9007 14.0405 12.3716 13.4819 12.7046C12.9233 13.034 12.2627 13.1987 11.5 13.1987ZM11.5 11.8237C11.9189 11.8237 12.2842 11.7127 12.5957 11.4907C12.9072 11.2687 13.1471 10.9554 13.3154 10.5508C13.4873 10.1462 13.5732 9.67171 13.5732 9.12744V9.1167C13.5732 8.56885 13.4873 8.0944 13.3154 7.69336C13.1471 7.28874 12.9072 6.97721 12.5957 6.75879C12.2842 6.53678 11.9189 6.42578 11.5 6.42578C11.0811 6.42578 10.7158 6.53678 10.4043 6.75879C10.0928 6.97721 9.85107 7.28874 9.6792 7.69336C9.50732 8.0944 9.42139 8.56885 9.42139 9.1167V9.12744C9.42139 9.67171 9.50553 10.1462 9.67383 10.5508C9.8457 10.9554 10.0856 11.2687 10.3936 11.4907C10.7051 11.7127 11.0739 11.8237 11.5 11.8237Z" fill="#F782D2"/>
</svg>
