<?xml version="1.0" encoding="UTF-8"?>
<svg id="uuid-9fd7937b-e84f-4c7b-83b7-5ff2fe90ec6b" data-name="Layer_1" xmlns="http://www.w3.org/2000/svg" viewBox="0 0 28 28">
  <defs>
    <style>
      .uuid-71b52ff7-817e-4e5b-ac17-541c647163e6 {
        fill: #fff;
      }

      .uuid-c4643421-839e-406b-8d58-8c1bdddcbe97 {
        fill: none;
        stroke: #fff;
        stroke-miterlimit: 10;
        stroke-width: 1.5px;
      }

      .uuid-549bfd14-d3e5-4b09-acbd-5436bf055738 {
        fill: #b740ad;
      }
    </style>
  </defs>
  <rect id="uuid-06a8cf31-5a9e-492b-b4c3-a9582dc11e19" data-name="svg_1" class="uuid-549bfd14-d3e5-4b09-acbd-5436bf055738" x="0" width="28" height="28" rx="1.312" ry="1.312"/>
  <g>
    <path class="uuid-71b52ff7-817e-4e5b-ac17-541c647163e6" d="M16.668,21.3867c0,.7324-.1348,1.3672-.4053,1.9082-.2695.5391-.6475.9863-1.1328,1.3379-.4858.3516-1.064.6133-1.7339.7842s-1.4009.2568-2.1938.2568c-.7041,0-1.3843-.041-2.0405-.123s-1.3057-.2188-1.9482-.4102v-2.4922c.3145.1094.6426.2119.9844.3076s.6851.1797,1.0303.251c.3452.0723.689.1289,1.0308.1699s.6733.0605.9946.0605c.4785,0,.8853-.041,1.2202-.123.3345-.082.6079-.1943.8208-.3379.2109-.1436.3652-.3145.4609-.5127s.1436-.417.1436-.6562c0-.3281-.0938-.6025-.2822-.8252-.1875-.2227-.4355-.4189-.7432-.5898s-.6582-.3242-1.0508-.4609c-.3936-.1367-.7935-.2842-1.2002-.4414s-.8066-.335-1.1992-.5332c-.3936-.1982-.7437-.4443-1.0513-.7383s-.5557-.6445-.7437-1.0508-.2817-.8975-.2817-1.4717c0-.5264.0957-1.0254.2871-1.4971s.4922-.8833.9023-1.2354.9365-.6323,1.5791-.8408,1.4185-.313,2.3276-.313c.2666,0,.5449.0122.8359.0356.29.0244.5771.0552.8613.0928.2832.0376.5566.082.8203.1328.2632.0518.5044.1045.7231.1592v2.3071c-.2188-.082-.458-.1572-.7183-.2256-.2598-.0684-.5283-.1284-.8047-.1792-.2773-.0518-.5557-.0908-.8359-.1182s-.5469-.041-.7998-.041c-.4443,0-.8203.0361-1.1279.1074-.3076.0723-.5605.1714-.7588.2979s-.3418.2817-.4307.4663c-.0889.1841-.1333.3892-.1333.6157,0,.2793.0938.5215.2817.7227s.4375.3828.749.543c.3105.1611.6626.3115,1.0557.4512.3936.1406.7959.291,1.21.4512.4141.1611.8174.3438,1.21.5488.3936.2051.7456.4551,1.0571.748.3105.2949.5605.6416.748,1.041.1885.4004.2822.873.2822,1.4199Z"/>
    <path class="uuid-71b52ff7-817e-4e5b-ac17-541c647163e6" d="M26.8643,16.3008c0,.6973-.1162,1.3418-.3486,1.9336s-.5781,1.1016-1.0352,1.5332c-.459.4297-1.0293.7656-1.7129,1.0039-.6836.2402-1.4766.3594-2.3789.3594h-1.2812v4.3066h-2.543v-13.4019h3.9268c.8682,0,1.6357.0942,2.3018.2817.667.1885,1.2275.4634,1.6816.8257.4551.3623.7998.8086,1.0361,1.3384.2354.5303.3535,1.1357.3535,1.8193ZM24.2188,16.4756c0-.3555-.0566-.6787-.1689-.9688-.1133-.29-.2842-.5386-.5127-.7437-.2295-.2051-.5176-.3623-.8672-.4717-.3477-.1094-.7617-.1641-1.2402-.1641h-1.3223v4.9116h1.4043c.4375,0,.8232-.0596,1.1582-.1797.335-.1191.6172-.292.8467-.5176.2285-.2256.4033-.4961.5225-.8105.1201-.3145.1797-.666.1797-1.0557Z"/>
  </g>
  <polyline class="uuid-c4643421-839e-406b-8d58-8c1bdddcbe97" points="1.8466 12.227 6.2086 19.0477 1.8466 25.4375"/>
</svg>